<svg xmlns="http://www.w3.org/2000/svg" viewBox="0 0 32 32" width="32" height="32">
  <defs>
    <linearGradient id="fireGrad" x1="0%" y1="0%" x2="100%" y2="100%">
      <stop offset="0%" style="stop-color:#e74c3c;stop-opacity:1" />
      <stop offset="100%" style="stop-color:#c0392b;stop-opacity:1" />
    </linearGradient>
  </defs>
  
  <!-- Fire Arrow Server Icon -->
  <!-- Fire flame base -->
  <path d="M8 26 C8 26 6 20 8 16 C10 12 14 14 16 10 C18 6 22 8 24 12 C26 16 24 22 22 26 Z" 
        fill="url(#fireGrad)" stroke="#a93226" stroke-width="0.5"/>
  
  <!-- Inner fire highlight -->
  <path d="M10 24 C10 24 9 19 10 16 C11 13 14 15 15 12 C16 9 19 10 20 13 C21 16 20 21 19 24 Z" 
        fill="#f39c12" opacity="0.8"/>
  
  <!-- Arrow -->
  <path d="M20 16 L28 16 L26 12 M28 16 L26 20" 
        stroke="#f39c12" stroke-width="2" fill="none" stroke-linecap="round" stroke-linejoin="round"/>
        
  <!-- Small fire sparks -->
  <circle cx="12" cy="8" r="1" fill="#f39c12" opacity="0.6"/>
  <circle cx="18" cy="6" r="0.8" fill="#e74c3c" opacity="0.7"/>
  <circle cx="6" cy="12" r="0.6" fill="#f39c12" opacity="0.5"/>
</svg>